<?xml version="1.0" encoding="UTF-8"?>
<svg id="Layer_1" data-name="Layer 1" xmlns="http://www.w3.org/2000/svg" viewBox="0 0 535.43 593.33">
  <defs>
    <style>
      .cls-1 {
        opacity: .5;
      }

      .cls-2, .cls-3 {
        stroke-width: 0px;
      }

      .cls-4 {
        fill: none;
        stroke: #565556;
      }

      .cls-4, .cls-5 {
        stroke-miterlimit: 10;
      }

      .cls-3 {
        fill: #ddd;
      }

      .cls-6 {
        opacity: .69;
      }

      .cls-5 {
        stroke: #fdfdfe;
      }
    </style>
  </defs>
  <g id="Gridline" class="cls-1">
    <circle class="cls-4" cx="268.06" cy="267.37" r="124.45"/>
    <circle class="cls-4" cx="268.06" cy="267.37" r="145"/>
    <ellipse class="cls-4" cx="268.06" cy="267.37" rx="103.05" ry="104.62"/>
    <g>
      <line class="cls-4" x1="268.06" y1="252.01" x2="268.06" y2="534.75"/>
      <line class="cls-4" x1="278.93" y1="256.51" x2="79" y2="456.43"/>
      <line class="cls-4" x1="283.43" y1="267.37" x2=".69" y2="267.37"/>
      <line class="cls-4" x1="278.93" y1="278.24" x2="79" y2="78.31"/>
      <line class="cls-4" x1="268.06" y1="282.74" x2="268.06"/>
      <line class="cls-4" x1="257.19" y1="278.24" x2="457.12" y2="78.31"/>
      <line class="cls-4" x1="252.69" y1="267.37" x2="535.43" y2="267.37"/>
      <line class="cls-4" x1="257.2" y1="256.51" x2="457.12" y2="456.43"/>
    </g>
    <line class="cls-4" x1="39.34" y1="122.37" x2="496.34" y2="122.37"/>
    <line class="cls-4" x1="39.34" y1="413.39" x2="496.34" y2="413.39"/>
    <line class="cls-4" x1="123.06" y1="16.37" x2="123.06" y2="517.66"/>
    <line class="cls-4" x1="414.06" y1="26.37" x2="413.76" y2="509.31"/>
  </g>
  <g class="cls-6">
    <path class="cls-3" d="m202.45,415.75c0,9.01.03,18.01-.01,27.02-.02,3.98-1.56,6.96-4.68,8.71-1.04.58-2.17.83-3.32.83-12.98,0-25.97.04-38.95-.02-3.33-.01-5.81-1.87-7.28-5.4-.54-1.29-.74-2.69-.74-4.11,0-18.03-.02-36.06,0-54.09,0-3.49,1.26-6.28,3.83-8.16,1.26-.92,2.67-1.35,4.16-1.35,13,0,26-.01,38.99,0,4.01,0,7.34,3.38,7.89,7.95.07.56.11,1.13.11,1.71,0,8.97,0,17.95,0,26.92Zm-1.98.03c0-9.04,0-18.08,0-27.12,0-2.03-.52-3.86-1.81-5.28-1.25-1.38-2.8-1.95-4.51-1.95-12.64,0-25.27,0-37.91,0-.48,0-.96,0-1.43.07-1.54.23-2.89.94-3.92,2.33-1.02,1.37-1.44,3.01-1.44,4.8,0,17.8,0,35.59,0,53.39,0,.71-.01,1.41.09,2.11.23,1.62.81,3.05,1.88,4.15,1.22,1.25,2.68,1.76,4.27,1.76,12.67,0,25.33,0,38,0,.48,0,.95-.01,1.43-.07,1.44-.18,2.72-.81,3.72-2.04,1.17-1.45,1.64-3.23,1.64-5.22,0-8.97,0-17.95,0-26.92Z"/>
    <path class="cls-2" d="m200.47,415.79c0,8.97,0,17.95,0,26.92,0,1.98-.47,3.76-1.64,5.22-1,1.23-2.28,1.86-3.72,2.04-.47.06-.95.07-1.43.07-12.67,0-25.33,0-38,0-1.59,0-3.05-.51-4.27-1.76-1.07-1.1-1.65-2.52-1.88-4.15-.1-.7-.09-1.41-.09-2.11,0-17.8,0-35.59,0-53.39,0-1.78.43-3.43,1.44-4.8,1.03-1.39,2.38-2.1,3.92-2.33.47-.07.95-.07,1.43-.07,12.64,0,25.27,0,37.91,0,1.71,0,3.26.57,4.51,1.95,1.29,1.42,1.81,3.25,1.81,5.28,0,9.04,0,18.08,0,27.12Zm-25.53,27.41c1,0,1.99,0,2.99,0,.91,0,1.82,0,2.73,0,.44,0,.82-.19,1.03-.68.2-.44.1-.85-.16-1.21-.25-.36-.61-.41-.98-.41-3.74,0-7.48,0-11.22,0-.21,0-.4.04-.59.12-.65.28-.83,1.31-.32,1.85.26.27.58.35.92.35,1.86,0,3.73,0,5.59,0Z"/>
    <path class="cls-3" d="m174.95,443.2c-1.86,0-3.73,0-5.59,0-.34,0-.66-.08-.92-.35-.52-.53-.33-1.57.32-1.85.19-.08.39-.12.59-.12,3.74,0,7.48,0,11.22,0,.37,0,.72.05.98.41.26.36.35.77.16,1.21-.22.49-.59.67-1.03.68-.91.01-1.82,0-2.73,0-1,0-1.99,0-2.99,0Z"/>
  </g>
  <g class="cls-6">
    <path class="cls-3" d="m36.36,303.75c-.27,0-.54,0-.81,0-7.23,0-14.45.02-21.68,0-2.98-.01-5.75-.77-8.18-2.52-3.74-2.69-5.63-6.36-5.64-10.83-.05-15.07-.06-30.14,0-45.21.02-5.93,3.56-10.57,8.9-12.52,1.6-.59,3.28-.84,4.99-.84,22.16-.01,44.33-.05,66.49.02,6,.02,10.36,2.8,12.85,8.17.79,1.7,1.05,3.54,1.06,5.39.02,14.95.02,29.89,0,44.84,0,6.42-4.17,11.59-10.52,13.12-1.13.27-2.29.39-3.46.39-7.2,0-14.4.01-21.6-.02-.76,0-.8.17-.58.8,1.75,4.99,3.48,9.98,5.2,14.98.16.46.37.64.9.63,4.77-.03,9.53-.01,14.3-.02.38,0,.75,0,1.12.14.72.28,1.07.82,1.12,1.52.04.61-.6,1.31-1.28,1.48-.29.07-.6.1-.9.1-20.97,0-41.94,0-62.91,0-.43,0-.87,0-1.25-.24-.59-.36-1-.85-.89-1.58.11-.75.75-1.31,1.55-1.41.25-.03.51-.02.76-.02,4.74,0,9.48,0,14.23,0,.35,0,.65.04.81-.43,1.8-5.23,3.62-10.45,5.44-15.68.02-.07,0-.14,0-.28Zm10.8-3.25c11.06,0,22.11,0,33.17,0,.82,0,1.62-.09,2.41-.25,5.04-1.05,8.23-4.94,8.23-10.08,0-14.9.01-29.79,0-44.69,0-2.47-.69-4.78-2.29-6.73-2.11-2.56-4.99-3.64-8.28-3.64-22.14-.03-44.27-.01-66.41-.01-1.27,0-2.53.18-3.73.59-4.62,1.55-6.83,5.25-6.85,9.69-.06,14.92-.03,29.84-.02,44.76,0,6.05,4.45,10.35,10.69,10.35,11.03,0,22.06,0,33.09,0Zm12.83,19.61c-.05-.18-.08-.27-.11-.36-1.78-5.13-3.57-10.26-5.33-15.4-.17-.5-.4-.61-.9-.61-4.31.02-8.62.02-12.93,0-.55,0-.78.15-.95.66-1.46,4.31-2.96,8.6-4.45,12.9-.32.92-.64,1.85-.97,2.82h25.65Z"/>
    <path class="cls-3" d="m134.7,277.67c0,11.82,0,23.64,0,35.45,0,2.33-.65,4.47-2.07,6.35-1.72,2.28-4.12,3.54-6.94,3.76-4.65.37-9.32.08-13.99.14-1.51.02-2.97-.24-4.37-.8-3.59-1.42-5.49-4.1-6.14-7.72-.14-.78-.15-1.57-.15-2.35,0-23.44,0-46.88,0-70.32,0-2.03.47-3.95,1.55-5.69,1.72-2.78,4.35-4.23,7.58-4.55,3.36-.34,6.74-.09,10.11-.12,1.7-.01,3.4-.11,5.09.08,5.42.59,8.87,4.18,9.3,9.43.03.34.02.69.02,1.03,0,11.77,0,23.54,0,35.31Zm-3.36-.07c0-2.66,0-5.32,0-7.98,0-9.4,0-18.81,0-28.21,0-1.2-.3-2.34-.96-3.36-1.43-2.19-3.59-2.97-6.16-2.96-4.21.02-8.42,0-12.63.01-.68,0-1.38.03-2.04.17-3.25.69-5.14,3.09-5.14,6.54,0,23.88,0,47.76,0,71.64,0,.64.07,1.28.24,1.9.82,2.93,3.12,4.71,6.34,4.75,4.59.06,9.18.03,13.77,0,1.34,0,2.61-.32,3.73-1.08,2.04-1.38,2.88-3.33,2.87-5.7-.01-11.92,0-23.83,0-35.75Z"/>
    <path class="cls-2" d="m47.16,300.5c-11.03,0-22.06,0-33.09,0-6.24,0-10.69-4.3-10.69-10.35,0-14.92-.04-29.84.02-44.76.02-4.44,2.23-8.15,6.85-9.69,1.21-.4,2.46-.59,3.73-.59,22.14,0,44.27-.01,66.41.01,3.28,0,6.17,1.08,8.28,3.64,1.6,1.95,2.29,4.26,2.29,6.73.02,14.9.01,29.79,0,44.69,0,5.14-3.19,9.03-8.23,10.08-.79.16-1.6.25-2.41.25-11.06,0-22.11,0-33.17,0Zm.04-58.83c-10.47,0-20.95,0-31.42,0-3.58,0-5.62,1.97-5.62,5.44,0,13.79,0,27.58,0,41.37,0,3.47,2.09,5.49,5.69,5.49,20.9,0,41.8,0,62.69,0,3.58,0,5.66-2.03,5.66-5.51,0-7.78,0-15.56,0-23.35,0-6.03,0-12.07,0-18.1,0-1.29-.3-2.49-1.13-3.52-1.11-1.38-2.64-1.82-4.37-1.82-10.5,0-21,0-31.5,0Z"/>
    <path class="cls-2" d="m59.99,320.11h-25.65c.33-.97.65-1.89.97-2.82,1.49-4.3,2.99-8.59,4.45-12.9.17-.51.41-.67.95-.66,4.31.02,8.62.02,12.93,0,.51,0,.73.11.9.61,1.76,5.14,3.55,10.27,5.33,15.4.03.09.05.18.11.36Z"/>
    <path class="cls-2" d="m131.34,277.6c0,11.92,0,23.83,0,35.75,0,2.37-.83,4.32-2.87,5.7-1.11.75-2.39,1.07-3.73,1.08-4.59.02-9.18.05-13.77,0-3.22-.04-5.51-1.83-6.34-4.75-.17-.61-.24-1.25-.24-1.9,0-23.88,0-47.76,0-71.64,0-3.46,1.89-5.86,5.14-6.54.66-.14,1.36-.17,2.04-.17,4.21-.01,8.42,0,12.63-.01,2.57,0,4.73.77,6.16,2.96.67,1.02.96,2.16.96,3.36,0,9.4,0,18.81,0,28.21,0,2.66,0,5.32,0,7.98Zm-13.42,9.84c-3.92-.03-6.71,2.62-6.77,6.44-.06,3.79,2.78,6.6,6.7,6.61,3.89.02,6.74-2.7,6.78-6.47.04-3.81-2.75-6.56-6.7-6.58Zm-.05-22.91c-2.13,0-4.26-.01-6.39,0-1.14,0-1.91.63-1.98,1.55-.06.77.68,1.54,1.67,1.71.2.03.4.02.61.02,1.65,0,3.29,0,4.94,0,2.48,0,4.97,0,7.45,0,.8,0,1.49-.27,1.9-.99.31-.55.21-1.08-.16-1.58-.43-.58-1.06-.71-1.74-.71-2.1,0-4.21,0-6.31,0Zm-.07-9.82c2.18,0,4.36,0,6.54,0,.92,0,1.53-.43,1.83-1.18.27-.68-.04-1.19-.52-1.63-.41-.37-.93-.46-1.48-.46-2.69,0-5.37,0-8.06,0-1.57,0-3.14,0-4.71,0-.81,0-1.41.38-1.76,1.07-.29.57-.08,1.11.31,1.57.4.47.94.62,1.55.62,2.1,0,4.21,0,6.31,0Z"/>
    <path class="cls-3" d="m47.2,241.67c10.5,0,21,0,31.5,0,1.72,0,3.26.45,4.37,1.82.83,1.03,1.13,2.23,1.13,3.52,0,6.03,0,12.07,0,18.1,0,7.78,0,15.56,0,23.35,0,3.48-2.08,5.51-5.66,5.51-20.9,0-41.8,0-62.69,0-3.59,0-5.69-2.01-5.69-5.49,0-13.79,0-27.58,0-41.37,0-3.47,2.04-5.44,5.62-5.44,10.47,0,20.95,0,31.42,0Zm.01,3.24c-10.45,0-20.89,0-31.34,0-1.75,0-2.37.6-2.37,2.31,0,13.71,0,27.43,0,41.14,0,1.7.63,2.32,2.37,2.32,20.87,0,41.73,0,62.6,0,1.73,0,2.36-.62,2.36-2.32,0-13.71,0-27.43,0-41.14,0-1.71-.61-2.31-2.36-2.31-10.42,0-20.84,0-31.26,0Z"/>
    <path class="cls-3" d="m117.92,287.44c3.95.03,6.75,2.77,6.7,6.58-.04,3.77-2.89,6.49-6.78,6.47-3.91-.02-6.76-2.82-6.7-6.61.06-3.82,2.85-6.47,6.77-6.44Zm-.06,3.23c-1.92.02-3.36,1.44-3.34,3.28.02,1.91,1.5,3.32,3.43,3.27,1.93-.05,3.36-1.47,3.32-3.31-.04-1.85-1.52-3.26-3.41-3.23Z"/>
    <path class="cls-3" d="m117.87,264.53c2.1,0,4.21,0,6.31,0,.68,0,1.31.13,1.74.71.37.49.47,1.03.16,1.58-.41.73-1.1.99-1.9.99-2.48.01-4.97,0-7.45,0-1.65,0-3.29,0-4.94,0-.2,0-.41.02-.61-.02-.99-.17-1.73-.94-1.67-1.71.07-.92.84-1.54,1.98-1.55,2.13-.01,4.26,0,6.39,0Z"/>
    <path class="cls-3" d="m117.8,254.71c-2.1,0-4.21,0-6.31,0-.61,0-1.16-.15-1.55-.62-.39-.46-.59-1-.31-1.57.35-.69.95-1.07,1.76-1.07,1.57,0,3.14,0,4.71,0,2.69,0,5.37,0,8.06,0,.55,0,1.07.09,1.48.46.48.44.79.95.52,1.63-.29.75-.91,1.17-1.83,1.18-2.18.01-4.36,0-6.54,0Z"/>
    <path class="cls-2" d="m47.21,244.91c10.42,0,20.84,0,31.26,0,1.75,0,2.36.6,2.36,2.31,0,13.71,0,27.43,0,41.14,0,1.7-.63,2.32-2.36,2.32-20.87,0-41.73,0-62.6,0-1.73,0-2.37-.62-2.37-2.32,0-13.71,0-27.43,0-41.14,0-1.71.62-2.31,2.37-2.31,10.45,0,20.89,0,31.34,0Z"/>
    <path class="cls-2" d="m117.86,290.67c1.89-.02,3.36,1.38,3.41,3.23.04,1.84-1.38,3.26-3.32,3.31-1.93.05-3.41-1.35-3.43-3.27-.02-1.84,1.42-3.26,3.34-3.28Z"/>
  </g>
  <g class="cls-6">
    <path class="cls-3" d="m434.18,91.68v63.54c-.22.25-.19.61-.28.91-1.34,4.14-4.29,6.56-7.97,6.59-8.11.06-16.22.03-24.33,0-1.41,0-2.8-.36-4.03-1.2-2.88-1.96-4.4-4.96-4.4-8.92-.02-19.49,0-38.97,0-58.46,0-2.26.52-4.34,1.68-6.13,1.76-2.74,4.16-3.97,7.02-3.98,7.67,0,15.34,0,23.02,0,.68,0,1.36,0,2.04.1,2.65.37,4.7,1.88,6.16,4.54.51.93.81,1.97,1.11,3.01Zm-1.83,31.7c0-9.48,0-18.96,0-28.44,0-.52-.02-1.04-.06-1.56-.28-3.55-2.19-6.07-5.13-6.73-1.63-.37-3.28-.12-4.93-.19-.29-.01-.23.24-.23.43,0,1,0,2,0,3.01-.02,2.34-1.26,3.92-3.23,3.94-3.34.04-6.69.04-10.04,0-1.77-.02-2.87-1.24-3.15-3.3-.16-1.2-.04-2.42-.07-3.62,0-.27,0-.48-.32-.47-1.45.05-2.91-.11-4.36.1-1.75.26-3.27,1.1-4.34,2.83-.91,1.47-1.3,3.17-1.3,4.99,0,18.98,0,37.96,0,56.95,0,.79.01,1.58.08,2.37.23,2.91,2.06,5.51,4.43,6.25.66.21,1.34.31,2.02.31,8.02,0,16.04,0,24.06,0,2.08,0,3.88-.82,5.19-2.83.96-1.47,1.35-3.19,1.36-5.03.01-9.67,0-19.34,0-29.01Zm-18.59-36.92c-1.91,0-3.82.01-5.73-.01-.37,0-.47.13-.46.56.03.96,0,1.92,0,2.88,0,.99.43,1.51,1.26,1.51,3.28,0,6.55,0,9.83,0,.83,0,1.29-.56,1.3-1.56,0-.96-.02-1.92.01-2.88.01-.42-.1-.52-.44-.52-1.93.02-3.85,0-5.78,0Z"/>
    <path class="cls-2" d="m432.36,123.38c0,9.67,0,19.34,0,29.01,0,1.84-.4,3.56-1.36,5.03-1.31,2.02-3.11,2.83-5.19,2.83-8.02,0-16.04,0-24.06,0-.69,0-1.36-.1-2.02-.31-2.37-.73-4.2-3.34-4.43-6.25-.06-.79-.08-1.58-.08-2.37,0-18.98,0-37.96,0-56.95,0-1.82.39-3.52,1.3-4.99,1.07-1.73,2.59-2.57,4.34-2.83,1.45-.21,2.9-.05,4.36-.1.32-.01.31.19.32.47.03,1.21-.09,2.42.07,3.62.28,2.05,1.39,3.27,3.15,3.3,3.34.04,6.69.04,10.04,0,1.97-.03,3.21-1.6,3.23-3.94,0-1,0-2,0-3.01,0-.19-.06-.44.23-.43,1.64.07,3.29-.18,4.93.19,2.93.66,4.85,3.18,5.13,6.73.04.52.06,1.04.06,1.56,0,9.48,0,18.96,0,28.44Z"/>
    <path class="cls-2" d="m413.77,86.46c1.93,0,3.85,0,5.78,0,.34,0,.45.09.44.52-.03.96,0,1.92-.01,2.88,0,.99-.47,1.56-1.3,1.56-3.28,0-6.55,0-9.83,0-.83,0-1.25-.53-1.26-1.51,0-.96.02-1.92,0-2.88-.01-.43.08-.56.46-.56,1.91.02,3.82.01,5.73.01Z"/>
    <ellipse class="cls-5" cx="413.58" cy="154.04" rx="3.51" ry="4.19"/>
  </g>
  <g class="cls-6">
    <path class="cls-3" d="m265.86,238.44c1.71-.02,3.41-.07,5.12-.07,17.48,0,34.95.02,52.43-.04,1.59,0,1.97.43,1.97,1.97-.05,18.42-.04,36.84-.02,55.26,0,1.02.08,1.74-1.44,1.74-19.18-.06-38.37-.04-57.55-.04-.17,0-.34-.03-.51-.04,0-19.59,0-39.18,0-58.77Zm44.89,54.39c4.41.02,7.42-1.32,8.83-3.57,2.68-4.27,1.17-9.28-3.64-11.78-1.8-.94-3.72-1.67-5.55-2.55-1.15-.55-1.92-1.43-1.79-2.8.08-.91.51-1.61,1.44-1.9,1.27-.39,2.67-.46,3.44.66,1.11,1.61,2.07,1.23,3.25.26.43-.36.91-.69,1.43-.91,1.06-.47.91-1.03.35-1.82-2.04-2.9-6.04-4.18-9.91-3.12-4.23,1.16-6.34,4.66-5.6,8.87.57,3.25,2.82,4.85,5.49,6.17,1.78.87,3.58,1.69,5.33,2.62.93.49,1.31,1.35,1.19,2.42-.13,1.09-.83,1.68-1.77,2.07-1.92.79-4.92.27-6.23-1.52-1.17-1.6-2.09-1.22-3.3-.35-.41.3-.84.6-1.31.79-1.17.47-1.19,1.06-.5,2.05,2.35,3.37,5.84,4.22,8.87,4.43Zm-12.52-16.81s.02,0,.03,0v-6.58c0-4.06,0-3.99-4.03-4.08-1.48-.03-1.77.47-1.75,1.82.07,5.68.05,11.36.01,17.04,0,1.29-.11,2.69-1.57,3.29-1.41.58-3,.24-3.7-.9-1.31-2.16-2.47-1.15-3.8-.27-.23.16-.49.29-.75.4-1.39.56-1.35,1.36-.56,2.48,2.12,3.03,6.41,4.41,10.52,3.29,3.5-.95,5.42-3.46,5.57-7.55.11-2.98.02-5.96.02-8.94Z"/>
    <path class="cls-3" d="m265.86,238.44c0,19.59,0,39.18,0,58.77-.69-.37-.34-1-.34-1.5-.02-18.59-.02-37.17,0-55.76,0-.51-.32-1.14.35-1.52Z"/>
    <path class="cls-2" d="m310.76,292.84c-3.02-.21-6.51-1.06-8.87-4.43-.69-.99-.67-1.58.5-2.05.47-.19.9-.49,1.31-.79,1.22-.87,2.14-1.24,3.3.35,1.31,1.8,4.31,2.31,6.23,1.52.94-.39,1.64-.98,1.77-2.07.13-1.07-.25-1.93-1.19-2.42-1.75-.92-3.56-1.74-5.33-2.62-2.67-1.31-4.92-2.92-5.49-6.17-.74-4.21,1.37-7.71,5.6-8.87,3.88-1.07,7.87.21,9.91,3.12.56.8.71,1.36-.35,1.82-.51.22-.99.56-1.43.91-1.18.97-2.14,1.34-3.25-.26-.77-1.12-2.17-1.05-3.44-.66-.94.29-1.36.99-1.44,1.9-.13,1.37.64,2.25,1.79,2.8,1.83.88,3.75,1.61,5.55,2.55,4.81,2.51,6.32,7.51,3.64,11.78-1.41,2.24-4.42,3.58-8.83,3.57Z"/>
    <path class="cls-2" d="m298.24,276.03c0,2.98.09,5.97-.02,8.94-.15,4.09-2.08,6.6-5.57,7.55-4.1,1.12-8.4-.26-10.52-3.29-.78-1.12-.83-1.91.56-2.48.26-.11.52-.24.75-.4,1.33-.88,2.49-1.89,3.8.27.69,1.14,2.29,1.49,3.7.9,1.45-.6,1.56-2,1.57-3.29.04-5.68.06-11.36-.01-17.04-.02-1.35.28-1.85,1.75-1.82,4.02.09,4.03.01,4.03,4.08v6.58s-.02,0-.03,0Z"/>
  </g>
  <g class="cls-6">
    <path class="cls-3" d="m113.47,34.87c8.88,0,17.75.03,26.63-.03,1.33,0,1.75.3,1.61,1.56-.66,6.29-1.25,12.58-1.85,18.87-.52,5.47-1.04,10.94-1.5,16.42-.35,4.14-1.29,8.22-1.3,12.41,0,1.33-.39,2.74-.31,4.13.04.77-.3,1.2-1.08,1.43-7.2,2.21-14.39,4.44-21.58,6.66-.51.16-.98.08-1.48-.08-7.07-2.19-14.14-4.37-21.23-6.52-.84-.25-1.21-.61-1.29-1.46-.93-9.96-1.89-19.92-2.85-29.88-.7-7.26-1.34-14.53-2.14-21.78-.16-1.47.21-1.78,1.73-1.77,8.88.06,17.75.03,26.63.03Zm-.44,17.39c.04.17.08.33.12.5-4.7,1.84-9.42,3.67-14.11,5.52-2.35.93-2.96,2.23-2.07,4.53.15.39.3.77.29,1.16-.02,1.48.79,1.72,2.25,1.7,6.91-.07,13.82.03,20.73-.03,1.46-.01,1.94.39,1.73,1.7-.32,1.96-.63,3.92-.45,5.91.04.43-.06.79-.62.93-3.61.87-6.99,2.55-11.02,1.18-3.83-1.3-3.97-1.05-4.35-4.88-.1-1.01-.44-1.5-1.59-1.47-1.52.05-3.04.05-4.56,0-1.21-.04-1.53.44-1.42,1.49.29,2.57.54,5.15.71,7.73.07.97.62,1.3,1.49,1.53,4.19,1.11,8.38,2.23,12.56,3.38.57.16,1.08.2,1.66.04,4.18-1.16,8.37-2.29,12.55-3.43.75-.21,1.33-.46,1.42-1.39.55-6.03,1.17-12.06,1.78-18.09.1-1-.3-1.35-1.38-1.33-2.53.06-5.07.02-7.61.02-2.02,0-4.05,0-6.07,0,3.98-1.92,7.91-3.68,11.98-5.09,2.7-.94,4.57-2.1,4.1-5.09-.05-.33.11-.69.19-1.04.33-1.4.09-2.05-1.81-2.02-9.64.11-19.27.04-28.91.06-1.64,0-3.81-.49-4.77.28-1.04.84.04,2.83.17,4.32.02.18.05.35.04.53-.04,1.09.55,1.38,1.65,1.35,3.04-.06,6.09-.02,9.13-.02,2.07,0,4.13,0,6.2,0Z"/>
    <path class="cls-2" d="m113.03,52.26c-2.07,0-4.13,0-6.2,0-3.04,0-6.09-.04-9.13.02-1.11.02-1.7-.27-1.65-1.35,0-.18-.02-.35-.04-.53-.13-1.49-1.21-3.48-.17-4.32.95-.77,3.13-.28,4.77-.28,9.64-.01,19.28.05,28.91-.06,1.9-.02,2.14.63,1.81,2.02-.08.34-.24.71-.19,1.04.46,2.99-1.4,4.15-4.1,5.09-4.07,1.41-8,3.17-11.98,5.09,2.02,0,4.05,0,6.07,0,2.54,0,5.07.04,7.61-.02,1.09-.02,1.49.32,1.38,1.33-.62,6.03-1.23,12.06-1.78,18.09-.08.93-.66,1.18-1.42,1.39-4.18,1.15-8.37,2.28-12.55,3.43-.58.16-1.09.11-1.66-.04-4.18-1.15-8.37-2.27-12.56-3.38-.87-.23-1.42-.56-1.49-1.53-.17-2.58-.43-5.16-.71-7.73-.12-1.05.21-1.54,1.42-1.49,1.52.06,3.04.05,4.56,0,1.15-.04,1.49.45,1.59,1.47.39,3.83.52,3.58,4.35,4.88,4.03,1.37,7.41-.32,11.02-1.18.57-.14.66-.5.62-.93-.18-1.99.13-3.95.45-5.91.22-1.31-.26-1.71-1.73-1.7-6.91.06-13.82-.04-20.73.03-1.45.01-2.27-.22-2.25-1.7,0-.39-.14-.77-.29-1.16-.89-2.3-.28-3.6,2.07-4.53,4.7-1.86,9.41-3.68,14.11-5.52-.04-.17-.08-.33-.12-.5Z"/>
  </g>
  <g class="cls-6">
    <path class="cls-3" d="m301.96,490.41c-1.1,5.12-.94,10.58-1.69,15.97-.68,4.86-1.03,9.76-1.46,14.65-.33,3.7-1.32,7.33-1.2,11.08.03.76-.53,1.61-.36,2.42.37,1.74-.47,2.45-2.35,2.96-6.15,1.67-12.25,3.5-18.35,5.31-.83.25-1.56.29-2.41.04-6.5-1.92-13.01-3.82-19.54-5.67-.94-.27-1.31-.65-1.39-1.52-.87-9-1.78-17.99-2.69-26.98-.65-6.38-1.29-12.75-2.02-19.12-.14-1.19.25-1.4,1.49-1.4,16.82.03,33.64.05,50.47-.02,2.21,0,1.37,1.16,1.5,2.29Zm-26.59,7.49c-5.09,0-10.18.04-15.26-.03-1.3-.02-1.81.2-1.68,1.45.17,1.65.13,3.29.42,4.95.55,3.11.7,6.26.69,9.41,0,2.05.35,2.28,2.68,2.29,6.58,0,13.17.03,19.75-.03,1.27-.01,1.61.36,1.31,1.32-.52,1.63-.26,3.31-.45,4.95-.07.58-.06,1.24-.87,1.4-3.18.64-6.1,1.98-9.71,1.05-3.18-.82-5.35-1.65-4.82-4.94.11-.65-.31-.93-1.08-.92-1.68.03-3.35.06-5.03,0-1.09-.04-1.25.48-1.05,1.17.64,2.19.7,4.44.83,6.67.07,1.17.46,1.76,1.83,2.06,3.82.82,7.6,1.78,11.39,2.7.65.16,1.3.17,1.95.02,3.91-.95,7.81-1.92,11.72-2.84.85-.2,1.27-.5,1.35-1.37.51-5.39,1.08-10.77,1.68-16.14.13-1.15-.4-1.4-1.61-1.4-6.04.05-12.09.04-18.13.01-1.54,0-3.54.58-4.51-.22-1.04-.86-.44-2.7-.78-4.07-.35-1.41.38-1.5,1.68-1.49,6.7.05,13.41.02,20.11.02q3.7,0,4.18-3.16c.06-.36.13-.73.22-1.09.31-1.26.05-1.84-1.73-1.8-5.02.13-10.05.04-15.08.04Z"/>
    <path class="cls-2" d="m275.37,497.9c5.03,0,10.06.08,15.08-.04,1.78-.04,2.04.54,1.73,1.8-.09.36-.16.72-.22,1.09q-.48,3.16-4.18,3.16c-6.7,0-13.41.02-20.11-.02-1.3,0-2.02.08-1.68,1.49.34,1.37-.26,3.21.78,4.07.97.8,2.97.22,4.51.22,6.04.02,12.09.04,18.13-.01,1.22,0,1.74.24,1.61,1.4-.6,5.38-1.17,10.76-1.68,16.14-.08.86-.5,1.17-1.35,1.37-3.91.93-7.81,1.89-11.72,2.84-.65.16-1.3.14-1.95-.02-3.79-.91-7.57-1.87-11.39-2.7-1.37-.3-1.76-.88-1.83-2.06-.13-2.23-.2-4.48-.83-6.67-.2-.69-.04-1.21,1.05-1.17,1.67.06,3.35.04,5.03,0,.77-.01,1.18.27,1.08.92-.54,3.3,1.63,4.13,4.82,4.94,3.61.93,6.53-.41,9.71-1.05.81-.16.8-.83.87-1.4.19-1.65-.07-3.32.45-4.95.3-.96-.04-1.33-1.31-1.32-6.58.06-13.17.03-19.75.03-2.33,0-2.69-.23-2.68-2.29.01-3.16-.14-6.31-.69-9.41-.3-1.66-.25-3.3-.42-4.95-.13-1.25.38-1.47,1.68-1.45,5.09.07,10.17.03,15.26.03Z"/>
  </g>
  <g class="cls-6">
    <path class="cls-3" d="m367.12,391.65c-.17-.38.09-.47.41-.59,8.42-3.2,16.83-6.4,25.25-9.61.24-.09.46-.12.72-.02,8.43,3.22,16.86,6.43,25.29,9.63.39.15.47.31.42.73-.31,2.73-.6,5.46-.9,8.2-.32,2.95-.65,5.9-.98,8.85-.32,2.95-.63,5.9-.95,8.85-.32,2.97-.64,5.94-.97,8.91-.04.38-.13.76-.12,1.13,0,.44-.18.65-.53.86-7.05,4.18-14.09,8.38-21.13,12.58-.35.21-.6.22-.96,0-7.05-4.22-14.11-8.42-21.17-12.61-.32-.19-.46-.41-.49-.79-.51-4.86-1.03-9.72-1.56-14.58-.52-4.84-1.07-9.67-1.59-14.51-.25-2.32-.49-4.64-.75-7.02Zm26.04-3.64c-2.14,5.14-4.24,10.18-6.33,15.22-3.26,7.83-6.51,15.65-9.78,23.47-.18.43-.15.53.31.52,1.7-.02,3.39-.02,5.09,0,.3,0,.47-.06.59-.4,1-2.68,2.04-5.34,3.05-8.01.13-.34.29-.45.63-.45,4.31.01,8.61.01,12.92,0,.32,0,.46.09.58.42.97,2.67,1.96,5.33,2.96,7.99.07.2.09.45.41.45,1.94-.01,3.89,0,5.89,0-5.44-13.07-10.86-26.09-16.32-39.2Z"/>
    <path class="cls-2" d="m393.16,388.01c5.46,13.11,10.87,26.13,16.32,39.2-2,0-3.95,0-5.89,0-.33,0-.34-.25-.41-.45-.99-2.66-1.98-5.32-2.96-7.99-.12-.33-.26-.42-.58-.42-4.31.01-8.61.01-12.92,0-.34,0-.51.11-.63.45-1.01,2.67-2.04,5.34-3.05,8.01-.13.34-.29.4-.59.4-1.7-.01-3.39-.02-5.09,0-.46,0-.49-.09-.31-.52,3.27-7.82,6.52-15.65,9.78-23.47,2.1-5.04,4.19-10.07,6.33-15.22Zm-.04,12.86c-1.57,4.02-3.13,8.04-4.71,12.1,3.06,0,6.04-.01,9.02.01.48,0,.47-.14.31-.53-1.46-3.71-2.91-7.43-4.37-11.14-.06-.14-.07-.32-.25-.44Z"/>
    <path class="cls-3" d="m393.12,400.88c.18.11.2.29.25.44,1.46,3.71,2.91,7.43,4.37,11.14.16.4.17.54-.31.53-2.98-.02-5.96-.01-9.02-.01,1.58-4.06,3.14-8.08,4.71-12.1Z"/>
  </g>
  <g class="cls-6">
    <path class="cls-3" d="m190.68,188.2c-.01-2.58.39-5.11.98-7.62.09-.38-.03-.45-.33-.54-3.56-1.04-6.87-2.61-9.84-4.87-1.22-.93-2.21-2.08-2.92-3.45-.99-1.9-.77-3.74.33-5.52,1.04-1.67,2.5-2.87,4.12-3.91,2.55-1.63,5.33-2.7,8.18-3.61.41-.13.54-.26.45-.75-.5-2.76-1.07-5.52-.95-8.35.08-2.05.37-4.06,1.36-5.9,1.15-2.14,2.94-3.13,5.32-3.06,2.5.07,4.71,1.06,6.8,2.34,2.06,1.26,3.97,2.72,5.65,4.49.23.25.35.21.58,0,2.19-2.14,4.53-4.07,7.28-5.43,1.36-.67,2.77-1.23,4.31-1.39,3.13-.32,5.44,1.11,6.59,4.11.62,1.61.85,3.29.92,5,.1,2.34-.15,4.66-.6,6.95-.09.49-.28.96-.38,1.45-.06.3.02.38.28.46,2.13.65,4.2,1.44,6.18,2.47,1.92,1.01,3.81,2.08,5.29,3.74.82.92,1.48,1.93,1.82,3.14.49,1.7,0,3.21-.95,4.6-1.12,1.65-2.66,2.82-4.29,3.88-2.44,1.59-5.12,2.64-7.87,3.5-.36.11-.37.24-.3.55.58,2.6,1,5.23.91,7.91-.07,1.89-.34,3.74-1.03,5.51-1.2,3.11-3.74,4.52-6.96,3.93-2.81-.51-5.22-1.89-7.5-3.55-1.28-.93-2.49-1.94-3.59-3.07-.2-.21-.31-.24-.55-.01-2.23,2.11-4.62,4.01-7.38,5.37-1.49.74-3.04,1.23-4.7,1.37-2.92.26-5.32-1.33-6.35-4.17-.65-1.81-.89-3.67-.86-5.59Zm19.43-8.54c1.8.04,3.6-.09,5.4-.11.23,0,.4-.04.54-.27,1.98-3.15,3.83-6.38,5.48-9.72.1-.2.12-.35.01-.57-1.61-3.33-3.47-6.52-5.48-9.61-.11-.18-.24-.27-.45-.28-.44-.02-.88-.04-1.31-.08-3.22-.27-6.45-.15-9.67.08-.22.01-.37.08-.5.28-1.95,3.11-3.84,6.26-5.47,9.57-.12.25-.1.43.01.66,1.64,3.3,3.44,6.5,5.42,9.6.16.24.32.34.6.35,1.8.01,3.6.15,5.4.1Zm-29.57-10.4s.01.1.03.16c.39,1.54,1.17,2.84,2.44,3.74,2.79,1.98,5.86,3.38,9.12,4.35.31.09.4.01.49-.28.78-2.6,1.74-5.14,2.87-7.61.13-.27.11-.49-.02-.75-1.11-2.35-2.07-4.77-2.82-7.27-.11-.38-.28-.4-.6-.31-1.64.47-3.24,1.06-4.78,1.79-2,.94-3.9,2.04-5.46,3.65-.67.69-1.16,1.5-1.26,2.53Zm59.13-.08c-.02-.11-.03-.24-.06-.36-.22-1.08-.9-1.84-1.7-2.51-2.9-2.43-6.21-4.06-9.83-5.04-.32-.09-.42.03-.51.32-.77,2.5-1.68,4.95-2.75,7.34-.12.27-.07.47.04.71,1,2.16,1.89,4.36,2.62,6.63.39,1.2.42,1.22,1.63.78,1.72-.62,3.42-1.31,5.02-2.21,1.64-.91,3.21-1.92,4.47-3.36.57-.66.96-1.41,1.07-2.31Zm-41.99,26.03c.73,0,1.43-.15,2.1-.43,3.15-1.32,5.92-3.22,8.38-5.6.17-.16.11-.23,0-.37-1.78-2.08-3.47-4.23-5.05-6.48-.1-.15-.2-.26-.41-.27-2.69-.13-5.35-.55-7.97-1.18-.35-.08-.4.05-.45.31-.17.89-.42,1.76-.54,2.66-.37,2.64-.48,5.27.04,7.9.46,2.34,1.71,3.46,3.9,3.45Zm14.41-6.18c2.31,1.98,4.57,3.98,7.3,5.3,1.14.55,2.34.88,3.61.92.59.02,1.21-.02,1.68-.44.57-.51,1.01-1.12,1.37-1.8.56-1.06.66-2.21.75-3.37.22-2.86-.05-5.67-.75-8.44-.07-.28-.14-.38-.46-.31-2.62.55-5.26.95-7.93,1.18-.22.02-.33.11-.44.28-.37.57-.76,1.13-1.15,1.69-1.22,1.74-2.55,3.39-3.99,5Zm-14.92-45.68c-1.16.02-2.02.41-2.61,1.33-.78,1.21-1.05,2.58-1.14,3.99-.18,2.99.33,5.91.86,8.83.05.28.16.36.44.29,2.57-.65,5.18-1.04,7.81-1.31.21-.02.34-.11.45-.27,1.55-2.21,3.22-4.31,5.02-6.32.18-.2.16-.32-.02-.5-2.45-2.37-5.16-4.33-8.35-5.53-.82-.31-1.68-.48-2.46-.51Zm29.59,7.36c-.03-.56-.04-1.12-.08-1.67-.13-1.43-.37-2.84-1.03-4.14-.5-.99-1.22-1.56-2.36-1.58-1.48-.03-2.83.46-4.14,1.07-2.66,1.23-4.88,3.07-6.99,5.09-.21.2-.07.29.05.42,1.78,2,3.45,4.09,4.99,6.28.14.2.29.28.53.31,2.6.27,5.18.66,7.72,1.3.29.07.41.02.47-.29.43-2.24.82-4.48.85-6.78Zm-1.57,27.39c-.58-1.91-1.22-3.76-2.02-5.63-1.29,2.24-2.5,4.45-3.9,6.65,2.05-.24,3.98-.6,5.92-1.02Zm-28.04-5.63c-.8,1.84-1.42,3.64-1.95,5.48-.07.24-.01.33.24.37,1.03.17,2.05.39,3.09.55.76.11,1.52.25,2.38.22-1.46-2.12-2.66-4.3-3.76-6.62Zm16.73-16.27c-1.2-1.68-2.44-3.19-3.78-4.64-1.29,1.5-2.53,3-3.78,4.64,2.56-.12,5.01-.1,7.56,0Zm0,26.15c-2.56.16-5.01.16-7.53.01,1.03,1.42,2.09,2.67,3.21,3.88.68.74.68.75,1.34,0,1.06-1.21,2.05-2.47,2.99-3.9Zm-12.94-22.94c-1.96.23-3.77.56-5.57.97-.3.07-.18.24-.14.38.26.82.52,1.63.8,2.44.33.95.69,1.88,1.14,2.88,1.14-2.31,2.38-4.46,3.77-6.67Zm18.49,0c1.24,2.25,2.44,4.42,3.65,6.62.75-1.75,1.36-3.52,1.92-5.3.06-.18.09-.3-.17-.36-1.75-.41-3.52-.73-5.4-.95Z"/>
    <path class="cls-2" d="m210.12,179.66c-1.8.05-3.6-.09-5.4-.1-.28,0-.45-.1-.6-.35-1.98-3.1-3.78-6.3-5.42-9.6-.11-.23-.13-.42-.01-.66,1.62-3.31,3.52-6.45,5.47-9.57.13-.2.28-.27.5-.28,3.22-.22,6.44-.34,9.67-.08.44.04.87.06,1.31.08.21,0,.33.1.45.28,2.02,3.09,3.87,6.28,5.48,9.61.1.22.09.37-.01.57-1.66,3.34-3.5,6.57-5.48,9.72-.14.23-.31.27-.54.27-1.8.02-3.6.14-5.4.11Zm.02-16.29c-2.98-.02-5.84,2.8-5.79,5.89.06,3.42,2.82,5.89,5.77,5.87,3.1-.02,5.73-2.59,5.75-5.83.02-3.17-2.51-5.76-5.73-5.93Z"/>
    <path class="cls-2" d="m180.55,169.26c.11-1.03.59-1.84,1.26-2.53,1.57-1.61,3.47-2.71,5.46-3.65,1.55-.73,3.14-1.32,4.78-1.79.32-.09.49-.06.6.31.75,2.5,1.71,4.91,2.82,7.27.12.26.14.48.02.75-1.12,2.47-2.09,5-2.87,7.61-.09.29-.18.37-.49.28-3.26-.97-6.33-2.37-9.12-4.35-1.27-.91-2.05-2.21-2.44-3.74-.02-.06-.02-.12-.03-.16Z"/>
    <path class="cls-2" d="m239.68,169.18c-.11.91-.49,1.66-1.07,2.31-1.26,1.44-2.83,2.45-4.47,3.36-1.6.9-3.3,1.59-5.02,2.21-1.21.44-1.24.42-1.63-.78-.73-2.27-1.63-4.47-2.62-6.63-.11-.24-.16-.45-.04-.71,1.07-2.39,1.98-4.84,2.75-7.34.09-.29.19-.41.51-.32,3.62.98,6.93,2.6,9.83,5.04.79.66,1.47,1.43,1.7,2.51.03.12.04.25.06.36Z"/>
    <path class="cls-2" d="m197.69,195.21c-2.2,0-3.44-1.11-3.9-3.45-.52-2.63-.41-5.27-.04-7.9.13-.9.37-1.77.54-2.66.05-.25.1-.39.45-.31,2.62.62,5.28,1.05,7.97,1.18.21,0,.31.12.41.27,1.58,2.24,3.28,4.39,5.05,6.48.11.13.17.2,0,.37-2.46,2.38-5.23,4.29-8.38,5.6-.67.28-1.37.43-2.1.43Z"/>
    <path class="cls-2" d="m212.1,189.03c1.44-1.61,2.77-3.26,3.99-5,.39-.56.77-1.12,1.15-1.69.11-.17.23-.26.44-.28,2.67-.22,5.31-.63,7.93-1.18.33-.07.39.02.46.31.69,2.77.97,5.58.75,8.44-.09,1.16-.19,2.32-.75,3.37-.36.68-.8,1.3-1.37,1.8-.48.42-1.09.46-1.68.44-1.27-.03-2.47-.37-3.61-.92-2.73-1.32-4.99-3.32-7.3-5.3Z"/>
    <path class="cls-2" d="m197.18,143.35c.78.03,1.63.2,2.46.51,3.19,1.2,5.91,3.15,8.35,5.53.19.18.2.29.02.5-1.8,2-3.47,4.11-5.02,6.32-.11.16-.24.25-.45.27-2.63.27-5.24.66-7.81,1.31-.28.07-.39,0-.44-.29-.53-2.92-1.04-5.84-.86-8.83.08-1.41.36-2.78,1.14-3.99.59-.92,1.45-1.32,2.61-1.33Z"/>
    <path class="cls-2" d="m226.78,150.71c-.03,2.29-.43,4.54-.85,6.78-.06.31-.19.37-.47.29-2.54-.64-5.12-1.03-7.72-1.3-.24-.03-.39-.11-.53-.31-1.54-2.2-3.21-4.29-4.99-6.28-.11-.13-.25-.22-.05-.42,2.11-2.01,4.34-3.86,6.99-5.09,1.31-.61,2.66-1.09,4.14-1.07,1.14.02,1.87.59,2.36,1.58.65,1.3.9,2.71,1.03,4.14.05.56.06,1.12.08,1.67Z"/>
    <path class="cls-2" d="m225.21,178.1c-1.94.42-3.86.78-5.92,1.02,1.4-2.21,2.61-4.42,3.9-6.65.8,1.87,1.44,3.72,2.02,5.63Z"/>
    <path class="cls-2" d="m197.17,172.47c1.09,2.32,2.3,4.5,3.76,6.62-.86.03-1.62-.11-2.38-.22-1.03-.15-2.06-.37-3.09-.55-.25-.04-.31-.13-.24-.37.53-1.84,1.15-3.64,1.95-5.48Z"/>
    <path class="cls-2" d="m213.89,156.2c-2.55-.1-5.01-.11-7.56,0,1.25-1.64,2.49-3.14,3.78-4.64,1.35,1.45,2.58,2.96,3.78,4.64Z"/>
    <path class="cls-2" d="m213.88,182.34c-.94,1.43-1.93,2.7-2.99,3.9-.65.74-.66.73-1.34,0-1.11-1.21-2.18-2.46-3.21-3.88,2.52.15,4.98.15,7.53-.01Z"/>
    <path class="cls-2" d="m200.94,159.4c-1.39,2.21-2.63,4.36-3.77,6.67-.45-1-.81-1.93-1.14-2.88-.28-.81-.54-1.63-.8-2.44-.04-.14-.16-.31.14-.38,1.8-.41,3.61-.74,5.57-.97Z"/>
    <path class="cls-2" d="m219.43,159.4c1.88.22,3.65.55,5.4.95.26.06.23.17.17.36-.56,1.79-1.17,3.55-1.92,5.3-1.21-2.2-2.41-4.37-3.65-6.62Z"/>
    <path class="cls-3" d="m210.13,163.37c3.22.17,5.75,2.76,5.73,5.93-.02,3.24-2.65,5.82-5.75,5.83-2.95.01-5.71-2.45-5.77-5.87-.05-3.08,2.81-5.91,5.79-5.89Z"/>
  </g>
  <g class="cls-6">
    <path class="cls-3" d="m481.35,254.35c2.82,0,5.65,0,8.47,0,.39,0,.53-.07.52-.5-.03-1.03,0-1.03-1.02-1.03-3.56,0-7.13-.01-10.69.02-.55,0-.64-.16-.62-.65.04-1.6,0-3.21.03-4.81.04-2.16.93-3.82,2.95-4.75.97-.45,2-.73,3.05-.91,2.64-.46,5.3-.57,7.97-.46,1.4.06,2.78.17,4.16.36,2.93.42,5.56,2.23,6.28,5.2.1.42.17.85.17,1.28,0,3.93.06,7.87-.02,11.8-.06,2.73-1.47,4.67-3.95,5.79-.78.35-1.63.39-2.48.39-3.82,0-7.65,0-11.47,0-1.66,0-3.25.35-4.64,1.31-2.04,1.41-3.24,3.35-3.48,5.83-.18,1.86-.06,3.72-.06,5.58,0,.44-.13.54-.55.53-1.39-.04-2.79,0-4.18-.05-2.06-.07-3.56-1.12-4.63-2.83-1.12-1.79-1.45-3.84-1.85-5.87-.72-3.59-.29-7.09.71-10.56,1.03-3.57,3.73-5.65,7.44-5.68,2.63-.02,5.27,0,7.9,0Zm2.07-4.64c1.44-.14,2.25-.96,2.29-2.38.03-1.34-.89-2.25-2.24-2.28-1.29-.03-2.23.79-2.32,2.26-.08,1.26,1.03,2.39,2.27,2.4Z"/>
    <path class="cls-3" d="m500.63,279.34c-3.08,0-6.16,0-9.25,0-.39,0-.49.1-.48.49.02,1.14,0,1.14,1.15,1.14,3.51,0,7.03.02,10.54-.02.55,0,.65.16.63.66-.07,1.57.08,3.14-.09,4.7-.13,1.15-.57,2.17-1.41,2.97-1.64,1.56-3.63,2.44-5.82,2.93-4.52,1.01-8.95.83-13.22-1.1-1.58-.71-2.96-1.7-3.63-3.41-.28-.7-.42-1.42-.42-2.17,0-3.81-.03-7.62,0-11.44.03-2.83,1.4-4.83,3.98-5.98.78-.35,1.63-.4,2.48-.4,3.79,0,7.58-.02,11.36,0,3.69.02,6.17-1.79,7.68-5.06.45-.97.55-2.02.56-3.08,0-1.59.01-3.17,0-4.76,0-.35.06-.48.44-.47,1.62.06,3.24-.08,4.85.09,1.93.21,3.31,1.22,4.23,2.91,1.11,2.03,1.58,4.24,1.95,6.49.66,4.04.15,7.93-1.57,11.64-.52,1.13-1.12,2.22-2.16,2.97-1.03.75-2.21.89-3.43.89-2.79,0-5.58,0-8.37,0Zm-.52,7.06c.01-1.25-1-2.36-2.27-2.31-1.32.04-2.22.87-2.33,2.29-.09,1.2,1.1,2.41,2.27,2.44,1.25.03,2.31-1.07,2.32-2.41Z"/>
    <path class="cls-2" d="m483.42,249.71c-1.24-.01-2.35-1.14-2.27-2.4.09-1.47,1.03-2.28,2.32-2.26,1.35.03,2.27.93,2.24,2.28-.03,1.42-.85,2.24-2.29,2.38Z"/>
    <path class="cls-2" d="m500.11,286.4c-.02,1.34-1.07,2.44-2.32,2.41-1.17-.03-2.37-1.24-2.27-2.44.11-1.42,1-2.24,2.33-2.29,1.27-.04,2.29,1.06,2.27,2.31Z"/>
  </g>
  <g class="cls-6">
    <path class="cls-3" d="m302.88,25.63c3.55,1.83,6.93,3.58,10.31,5.33,6.55,3.39,13.1,6.8,19.65,10.18.54.28.96.52.96,1.2,0,4.42.05,8.83.07,13.25,0,.16-.03.32-.07.66-6.2-3.25-12.3-6.44-18.61-9.74,0,1.68.16,3.19-.04,4.66-.26,1.98.45,3.14,2.51,3.95,2.13.85,4.08,2.07,6.11,3.12.4.21.73.39.73.9-.02,3.98-.01,7.96-.01,12.16-3.1-1.62-6.1-3.18-9.3-4.86,0,.51,0,.86,0,1.21,0,5.46-.01,10.93.02,16.39,0,.66-.22,1.02-.85,1.35-3.55,1.83-7.09,3.7-10.61,5.58-.81.44-.96.24-.96-.53.02-21.32.01-42.63.02-63.95,0-.23.03-.47.06-.87Z"/>
    <path class="cls-3" d="m269,56.21c0-1.44,0-2.74,0-4.04,0-3.17.02-6.34-.02-9.51,0-.73.24-1.15.96-1.51,5.32-2.71,10.62-5.46,15.92-8.2,4.51-2.34,9.02-4.69,13.53-7.03.15-.08.32-.13.57-.23v65.73c-1.89-.99-3.68-1.92-5.47-2.86-1.96-1.03-3.91-2.09-5.89-3.08-.69-.35-.98-.75-.97-1.5.03-12.04.02-24.08.02-36.11,0-.36.21-.86-.13-1.05-.42-.23-.88.15-1.27.35-5.36,2.83-10.71,5.66-16.06,8.49-.34.18-.7.34-1.18.56Z"/>
  </g>
  <g class="cls-6">
    <ellipse class="cls-2" cx="48.2" cy="559.54" rx="34.59" ry="33.79"/>
    <path class="cls-3" d="m54.59,574.51c1.93-.28,3.75-.57,5.53-1.11,5.77-1.78,8.96-5.65,9.88-11.38.49-3.02.62-6.04-.48-8.99-.53-1.42-1.28-2.7-2.29-3.84-.3-.33-.39-.59-.24-1.05.85-2.67.57-5.31-.32-7.92-.16-.46-.44-.61-.91-.6-1.62.05-3.11.56-4.57,1.19-1.33.58-2.58,1.29-3.79,2.08-.32.21-.6.28-.99.19-5.43-1.34-10.86-1.34-16.28,0-.42.1-.71,0-1.06-.22-2.03-1.27-4.1-2.5-6.5-2.97-2.88-.57-2.5-.53-3.14,1.85-.59,2.18-.57,4.37.15,6.53.1.31.04.53-.17.78-2.67,3.1-3.53,6.69-3.18,10.66.21,2.3.59,4.54,1.58,6.64,1.87,4.01,5.24,6.22,9.5,7.34,1.46.38,2.95.59,4.57.81-1.19,1.26-1.84,2.68-2.06,4.29-.04.31-.31.36-.52.44-3.86,1.48-7.34.68-9.54-2.86-1.13-1.83-2.68-3.16-4.92-3.56-.72-.13-1.63-.2-1.95.43-.38.75.52,1.14,1.07,1.47,1.74,1.03,2.98,2.51,3.63,4.31,1.45,4.06,5.43,5.45,9.29,5.17.66-.05,1.31-.12,1.96-.26.58-.12.82-.07.8.62-.04,1.71.01,3.41.02,5.12,0,1.8-1.04,2.53-2.79,1.9-10.3-3.71-17.67-10.48-21.17-20.56-4.81-13.85-1.66-26.17,9.16-36.39,5.66-5.35,12.67-8.18,20.57-8.8,17.36-1.35,33.03,9.97,36.64,26.47,3.69,16.85-5.8,33.5-22.37,39.24-1.93.67-2.9,0-2.89-1.99,0-3.04.04-6.08.03-9.12,0-2.19-.58-4.2-2.24-5.91Z"/>
  </g>
</svg>