<?xml version="1.0" encoding="UTF-8"?>
<svg id="Layer_2" data-name="Layer 2" xmlns="http://www.w3.org/2000/svg" viewBox="0 0 648.18 593.33">
  <defs>
    <style>
      .cls-1 {
        fill: #fff;
        stroke: #0d0c16;
        stroke-width: 12px;
      }

      .cls-1, .cls-2 {
        stroke-miterlimit: 10;
      }

      .cls-2 {
        fill: none;
        stroke: #fff;
        stroke-width: 18px;
      }
    </style>
  </defs>
  <path class="cls-1" d="m277.91,237.07c50.65-16.35,83.9-43.81,83.9-74.94,0-50.09-86.14-90.71-192.38-90.71-6.98,0-13.87.17-20.65.52-45.36,2.28-86.01,11.99-116.36,26.51v17.69c27.68-9.6,63.47-15.38,102.57-15.38,4.65,0,9.25.08,13.79.25,81.35,2.86,145.23,30.86,145.23,64.99,0,26.74-39.18,49.7-95.28,59.79l-70.75,5.39c-36.36-.64-69.56-6.29-95.57-15.31v9.95l50.51,17.36c-19.11,6.89-35.76,15.56-49.15,25.6,29.33-9.97,66.24-15.9,106.36-15.9,2.89,0,5.77.03,8.65.09,91.47,1.95,164.25,34.77,164.25,74.98s-72.78,73.02-164.25,74.97c-2.88.06-5.75.09-8.65.09-40.74,0-78.17-6.12-107.71-16.35v1.6c24.9,19.07,61.46,33.42,104.11,40.04,17,2.64,34.95,4.06,53.53,4.06,106.23,0,192.37-46.27,192.37-103.34,0-40.07-42.46-74.81-104.51-91.96Z"/>
  <polyline class="cls-2" points="214.8 71.43 235.52 116.72 269.28 190.48 269.85 191.7 288.34 232.12 297.48 252.09 350.86 368.73 379.99 432.37"/>
  <polyline class="cls-2" points="48.04 432.37 48.12 432.18 49.6 428.98 123.47 269.08 131.14 252.49 159.43 191.27 202.2 98.7 214.8 71.43"/>
  <line class="cls-2" x1="214.36" y1="252.29" x2="159.43" y2="191.27"/>
  <path class="cls-2" d="m214.36,252.29l20.74-22.66.04-.02,10.56-11.53,22.24-24.28,1.92-2.1,110.15-120.27"/>
  <line class="cls-2" x1="49.8" y1="252.68" x2="379.99" y2="251.9"/>
  <path class="cls-2" d="m361.82,426.37h17.08V65.43l-110.15,120.27-.56-1.22-33.76-73.76-20.72-45.29-12.6,27.27-42.77,92.57L48.51,65.43v360.94h16.19"/>
</svg>